<?xml version="1.0" encoding="iso-8859-1"?>
<!-- Uploaded to: SVG Repo, www.svgrepo.com, Generator: SVG Repo Mixer Tools -->
<svg height="800px" width="800px" version="1.1" id="Layer_1" xmlns="http://www.w3.org/2000/svg" xmlns:xlink="http://www.w3.org/1999/xlink" 
	 viewBox="0 0 512 512" xml:space="preserve">
<path style="fill:#FEDC3D;" d="M421.978,45.011H388.22v298.198h33.758c18.567,0,33.758-15.191,33.758-33.758V78.769
	C455.736,60.202,440.545,45.011,421.978,45.011z"/>
<path style="fill:#FFF1B1;" d="M421.978,309.451V78.769c0-18.567-15.191-33.758-33.758-33.758H33.758
	C15.191,45.011,0,60.202,0,78.769v230.681c0,18.567,15.191,33.758,33.758,33.758h70.33l39.385,67.516l39.385-67.516H388.22
	C406.787,343.209,421.978,328.018,421.978,309.451z"/>
<g>
	<path style="fill:#BFA52E;" d="M351.648,157.538h-247.56c-4.661,0-8.44-3.779-8.44-8.44s3.779-8.44,8.44-8.44h247.56
		c4.661,0,8.44,3.779,8.44,8.44S356.309,157.538,351.648,157.538z"/>
	<path style="fill:#BFA52E;" d="M351.648,202.549h-247.56c-4.661,0-8.44-3.779-8.44-8.44c0-4.661,3.779-8.44,8.44-8.44h247.56
		c4.661,0,8.44,3.779,8.44,8.44C360.088,198.771,356.309,202.549,351.648,202.549z"/>
	<path style="fill:#BFA52E;" d="M239.121,247.56H104.088c-4.661,0-8.44-3.779-8.44-8.44c0-4.661,3.779-8.44,8.44-8.44h135.033
		c4.661,0,8.44,3.779,8.44,8.44C247.56,243.782,243.782,247.56,239.121,247.56z"/>
</g>
<path style="fill:#FE5F1A;" d="M399.473,241.934v225.055c62.149,0,112.527-50.379,112.527-112.527S461.621,241.934,399.473,241.934z
	"/>
<path style="fill:#FE834D;" d="M399.473,241.934c43.503,0,78.769,50.379,78.769,112.527s-35.266,112.527-78.769,112.527
	c-62.149,0-112.527-50.379-112.527-112.527S337.324,241.934,399.473,241.934z"/>
<path style="fill:#FFFFFF;" d="M451.192,382.311l-27.849-27.849l27.849-27.849c6.592-6.592,6.592-17.279,0-23.87
	c-6.592-6.592-17.279-6.592-23.87,0l-27.849,27.849l-27.849-27.849c-6.592-6.592-17.279-6.592-23.87,0s-6.592,17.279,0,23.87
	l27.849,27.849l-27.849,27.849c-6.592,6.592-6.592,17.279,0,23.87c6.592,6.592,17.279,6.592,23.87,0l27.849-27.849l27.849,27.849
	c6.592,6.592,17.279,6.592,23.87,0C457.784,399.59,457.784,388.902,451.192,382.311z"/>
</svg>