<?xml version="1.0" encoding="iso-8859-1"?>
<!-- Uploaded to: SVG Repo, www.svgrepo.com, Generator: SVG Repo Mixer Tools -->
<svg height="800px" width="800px" version="1.1" id="Layer_1" xmlns="http://www.w3.org/2000/svg" xmlns:xlink="http://www.w3.org/1999/xlink" 
	 viewBox="0 0 512 512" xml:space="preserve">
<path style="fill:#FEDC3D;" d="M416.681,51.745H384v288.681h32.681c17.974,0,32.681-14.706,32.681-32.681V84.426
	C449.362,66.451,434.655,51.745,416.681,51.745z"/>
<path style="fill:#FFF1B1;" d="M416.681,307.745V84.426c0-17.974-14.706-32.681-32.681-32.681H40.851
	c-17.974,0-32.681,14.706-32.681,32.681v223.319c0,17.974,14.706,32.681,32.681,32.681h68.085l38.128,65.362l38.128-65.362H384
	C401.974,340.426,416.681,325.719,416.681,307.745z"/>
<g>
	<path style="fill:#BFA52E;" d="M348.596,160.681h-239.66c-4.512,0-8.17-3.658-8.17-8.17s3.658-8.17,8.17-8.17h239.66
		c4.512,0,8.17,3.658,8.17,8.17S353.108,160.681,348.596,160.681z"/>
	<path style="fill:#BFA52E;" d="M348.596,204.255h-239.66c-4.512,0-8.17-3.658-8.17-8.17s3.658-8.17,8.17-8.17h239.66
		c4.512,0,8.17,3.658,8.17,8.17S353.108,204.255,348.596,204.255z"/>
	<path style="fill:#BFA52E;" d="M239.66,247.83H108.936c-4.512,0-8.17-3.658-8.17-8.17c0-4.512,3.658-8.17,8.17-8.17H239.66
		c4.512,0,8.17,3.658,8.17,8.17C247.83,244.172,244.172,247.83,239.66,247.83z"/>
</g>
<path style="fill:#FE5F1A;" d="M394.894,242.383v217.872c60.165,0,108.936-48.771,108.936-108.936S455.059,242.383,394.894,242.383z
	"/>
<path style="fill:#FE834D;" d="M394.894,242.383c42.115,0,76.255,48.771,76.255,108.936s-34.141,108.936-76.255,108.936
	c-60.165,0-108.936-48.771-108.936-108.936S334.728,242.383,394.894,242.383z"/>
<path style="fill:#FFFFFF;" d="M444.963,378.28l-26.961-26.961l26.961-26.961c6.381-6.381,6.381-16.727,0-23.109
	c-6.382-6.381-16.727-6.381-23.109,0l-26.961,26.961l-26.961-26.961c-6.382-6.381-16.727-6.381-23.109,0
	c-6.382,6.382-6.382,16.727,0,23.109l26.961,26.961l-26.961,26.961c-6.382,6.381-6.382,16.727,0,23.109
	c6.381,6.381,16.727,6.381,23.109,0l26.961-26.961l26.961,26.961c6.381,6.381,16.727,6.381,23.109,0
	C451.344,395.007,451.344,384.661,444.963,378.28z"/>
<path d="M253.692,332.255h-68.5c-2.905,0-5.593,1.544-7.058,4.054l-31.07,53.263l-31.07-53.263c-1.465-2.51-4.153-4.053-7.058-4.053
	H40.851c-13.516,0-24.511-10.995-24.511-24.511V84.426c0-13.516,10.995-24.511,24.511-24.511h375.83
	c13.516,0,24.511,10.995,24.511,24.511v136.177c0,4.512,3.658,8.17,8.17,8.17c4.512,0,8.17-3.658,8.17-8.17V84.426
	c0-22.526-18.325-40.851-40.851-40.851H40.851C18.325,43.574,0,61.9,0,84.426v223.319c0,22.526,18.325,40.851,40.851,40.851h63.392
	l35.763,61.308c1.464,2.51,4.152,4.054,7.058,4.054s5.593-1.544,7.058-4.054l35.763-61.308h63.807c4.512,0,8.17-3.658,8.17-8.17
	C261.862,335.913,258.204,332.255,253.692,332.255z"/>
<path d="M394.894,234.213c-64.573,0-117.106,52.533-117.106,117.106s52.533,117.106,117.106,117.106S512,415.892,512,351.319
	S459.467,234.213,394.894,234.213z M394.894,452.085c-55.563,0-100.766-45.203-100.766-100.766s45.203-100.766,100.766-100.766
	S495.66,295.756,495.66,351.319S450.457,452.085,394.894,452.085z"/>
<path d="M450.74,295.473c-4.63-4.63-10.785-7.179-17.332-7.179c-6.547,0-12.702,2.549-17.332,7.179l-21.183,21.183l-21.184-21.183
	c-4.63-4.63-10.785-7.179-17.332-7.179c-6.547,0-12.703,2.55-17.332,7.179c-9.557,9.557-9.557,25.107,0,34.664l21.184,21.183
	l-21.183,21.183c-9.557,9.557-9.557,25.107,0,34.664c4.63,4.63,10.785,7.179,17.332,7.179s12.702-2.549,17.332-7.179l21.183-21.183
	l21.183,21.183c4.63,4.63,10.785,7.179,17.332,7.179c6.547,0,12.703-2.549,17.332-7.179c9.557-9.557,9.557-25.107,0-34.664
	l-21.183-21.183l21.183-21.183C460.297,320.58,460.297,305.03,450.74,295.473z M439.186,318.582l-26.961,26.961
	c-1.533,1.532-2.393,3.61-2.393,5.777c0,2.167,0.861,4.245,2.393,5.777l26.961,26.961c3.185,3.185,3.185,8.37,0,11.555
	c-1.544,1.544-3.595,2.393-5.778,2.393c-2.182,0-4.234-0.85-5.777-2.393l-26.961-26.961c-1.595-1.596-3.686-2.393-5.777-2.393
	c-2.091,0-4.182,0.797-5.777,2.393l-26.961,26.961c-1.544,1.544-3.595,2.393-5.777,2.393c-2.182,0-4.234-0.85-5.777-2.393
	c-3.185-3.185-3.185-8.37,0-11.555l26.961-26.961c3.191-3.191,3.191-8.364,0-11.554l-26.961-26.961
	c-3.185-3.185-3.185-8.37,0-11.555c1.543-1.544,3.594-2.393,5.777-2.393c2.182,0,4.234,0.85,5.777,2.393l26.961,26.961
	c3.191,3.191,8.364,3.191,11.554,0l26.961-26.961c1.544-1.544,3.595-2.393,5.777-2.393c2.182,0,4.234,0.85,5.778,2.393
	C442.371,310.213,442.371,315.396,439.186,318.582z"/>
</svg>