<?xml version="1.0" encoding="iso-8859-1"?>
<!-- Uploaded to: SVG Repo, www.svgrepo.com, Generator: SVG Repo Mixer Tools -->
<svg height="800px" width="800px" version="1.1" id="Layer_1" xmlns="http://www.w3.org/2000/svg" xmlns:xlink="http://www.w3.org/1999/xlink" 
	 viewBox="0 0 512 512" xml:space="preserve">
<g transform="translate(1 1)">
	<path style="fill:#FD9808;" d="M460.653,16.067H134.68c-23.04,0-41.813,18.773-41.813,41.813v77.653H375.32
		c23.04,0,41.813,18.773,41.813,41.813V280.6h43.52c23.04,0,41.813-18.773,41.813-41.813V57.88
		C502.467,34.84,483.693,16.067,460.653,16.067"/>
	<path style="fill:#FFDD09;" d="M437.613,16.067H132.12c-21.333,0-39.253,18.773-39.253,41.813v77.653H357.4
		c22.187,0,39.253,18.773,39.253,41.813V280.6h40.96c22.187,0,39.253-18.773,39.253-41.813V57.88
		C476.867,34.84,458.947,16.067,437.613,16.067"/>
	<path style="fill:#FD9808;" d="M417.133,177.347V357.4c0,23.04-18.773,41.813-41.813,41.813H195.267l-85.333,94.72v-93.867H49.347
		c-23.04,0-41.813-18.773-41.813-41.813V177.347c0-23.04,18.773-41.813,41.813-41.813h325.12
		C398.36,135.533,417.133,154.307,417.133,177.347"/>
	<path style="fill:#FFDD09;" d="M391.533,177.347V357.4c0,23.04-17.92,41.813-39.253,41.813H183.32l-80.213,93.867v-93.013h-56.32
		c-21.333,0-39.253-18.773-39.253-41.813V177.347c0-23.04,17.92-41.813,39.253-41.813H352.28
		C373.613,135.533,391.533,154.307,391.533,177.347"/>
	<path style="fill:#FFFFFF;" d="M49.347,135.533h23.04c-21.333,0-39.253,18.773-39.253,41.813V357.4
		c0,23.893,17.92,42.667,39.253,42.667h-23.04c-23.04,0-41.813-18.773-41.813-41.813V177.347
		C7.533,154.307,26.307,135.533,49.347,135.533"/>
	<g>
		<polygon style="fill:#1CD759;" points="212.333,178.2 118.467,272.067 144.067,297.667 212.333,229.4 212.333,229.4 
			212.333,229.4 280.6,297.667 306.2,272.067 		"/>
		<polygon style="fill:#1CD759;" points="212.333,229.4 161.133,280.6 161.133,348.867 263.533,348.867 263.533,280.6 		"/>
	</g>
	<path d="M109.933,502.467c-0.853,0-1.707,0-3.413-0.853c-2.56-0.853-5.12-4.267-5.12-7.68V408.6H49.347
		C22.04,408.6-1,385.56-1,358.253V177.347C-1,149.187,22.04,127,49.347,127h325.12c28.16,0,50.347,23.04,50.347,50.347V357.4
		c0,28.16-23.04,50.347-50.347,50.347H198.68l-82.773,91.307C114.2,501.613,112.493,502.467,109.933,502.467z M49.347,144.067
		c-17.92,0-33.28,15.36-33.28,33.28V357.4c0,18.773,15.36,34.133,33.28,34.133h60.587c5.12,0,8.533,3.413,8.533,8.533v71.68
		l70.827-77.653c1.707-1.707,4.267-2.56,5.973-2.56H375.32c18.773,0,33.28-15.36,33.28-33.28V177.347
		c0-18.773-15.36-33.28-33.28-33.28H49.347z"/>
	<path d="M460.653,289.133h-43.52c-5.12,0-8.533-3.413-8.533-8.533V177.347c0-18.773-15.36-33.28-33.28-33.28H92.867
		c-5.12,0-8.533-3.413-8.533-8.533V57.88c0-27.307,23.04-50.347,50.347-50.347H459.8c28.16,0,51.2,23.04,51.2,50.347v180.053
		C511,266.093,487.96,289.133,460.653,289.133z M425.667,272.067h34.987c18.773,0,33.28-15.36,33.28-33.28V57.88
		c0-17.92-15.36-33.28-33.28-33.28H134.68c-17.92,0-33.28,15.36-33.28,33.28V127h273.92c28.16,0,50.347,23.04,50.347,50.347V272.067
		z"/>
	<path d="M280.6,306.2L280.6,306.2c-2.56,0-4.267-0.853-5.973-2.56l-62.293-62.293L150.04,303.64
		c-1.707,1.707-3.413,2.56-5.973,2.56l0,0c-2.56,0-4.267-0.853-5.973-2.56l-25.6-25.6c-3.413-3.413-3.413-8.533,0-11.947
		l93.867-93.867c1.707-1.707,3.413-2.56,5.973-2.56l0,0c2.56,0,4.267,0.853,5.973,2.56l93.867,93.867
		c1.707,1.707,2.56,3.413,2.56,5.973c0,2.56-0.853,4.267-2.56,5.973l-25.6,25.6C284.867,305.347,283.16,306.2,280.6,306.2z
		 M214.04,220.867c1.707,0,3.413,0.853,4.267,2.56L280.6,285.72l13.653-13.653l-81.92-81.92l-81.92,81.92l13.653,13.653
		l62.293-62.293c1.707-1.707,3.413-2.56,5.973-2.56l0,0C213.187,220.867,214.04,220.867,214.04,220.867z"/>
	<path d="M263.533,357.4h-102.4c-5.12,0-8.533-3.413-8.533-8.533V280.6c0-2.56,0.853-4.267,2.56-5.973l51.2-51.2
		c1.707-1.707,3.413-2.56,5.973-2.56l0,0c2.56,0,4.267,0.853,5.973,2.56l51.2,51.2c1.707,1.707,2.56,3.413,2.56,5.973v68.267
		C272.067,353.987,268.653,357.4,263.533,357.4z M169.667,340.333H255v-56.32l-42.667-42.667l-42.667,42.667V340.333z"/>
</g>
</svg>