<svg width="24" height="24" viewBox="0 0 24 24" fill="none" xmlns="http://www.w3.org/2000/svg">
<path d="M20.93 8.01001H2.78999V21.33H20.93V8.01001Z" fill="#FFEABB"/>
<path d="M13.18 8.01001L11.86 15.45L2.78999 21.33H20.93V8.01001H13.18Z" fill="#F7BF75"/>
<path d="M5.10999 6.00002L3.55999 6.90002C3.32653 7.03246 3.1323 7.22437 2.99705 7.45622C2.8618 7.68807 2.79036 7.95161 2.78999 8.22002V8.22002C2.79067 8.4923 2.85636 8.76048 2.9816 9.00225C3.10683 9.24402 3.28799 9.45239 3.50999 9.61002L11.86 15.49L20.21 9.61002C20.432 9.45239 20.6132 9.24402 20.7384 9.00225C20.8636 8.76048 20.9293 8.4923 20.93 8.22002C20.9296 7.95279 20.8593 7.69032 20.7259 7.45873C20.5926 7.22714 20.4009 7.03451 20.17 6.90002L18.54 5.96002L5.10999 6.00002Z" fill="#F1734D"/>
<path d="M5.40999 2.67001V10.91L11.86 15.45L18.31 10.91V10.9V2.67001H5.40999Z" fill="#EAE2F9"/>
<path d="M15.46 2.67001V8.52001C15.4611 8.84414 15.3834 9.16368 15.2336 9.45111C15.0837 9.73855 14.8663 9.98526 14.6 10.17L9.48 13.77L11.86 15.45L18.31 10.91V2.67001H15.46Z" fill="#C0C3EE"/>
<path d="M4.90999 2.67001V5.50001C4.75999 5.56001 3.90999 6.07001 3.30999 6.42001C3.03235 6.59 2.7965 6.82027 2.61994 7.09377C2.44337 7.36728 2.3306 7.67701 2.28999 8.00001V21.33C2.29554 21.397 2.31605 21.462 2.34999 21.52C2.34999 21.52 2.34999 21.52 2.34999 21.52C2.37074 21.5458 2.39421 21.5693 2.41999 21.59L2.48999 21.64H2.58999H2.67999H20.93C21.0074 21.6402 21.0834 21.6194 21.15 21.58C21.15 21.58 21.15 21.58 21.2 21.58C21.2466 21.5513 21.2874 21.514 21.32 21.47V21.47V21.38C21.3246 21.3468 21.3246 21.3132 21.32 21.28C21.32 21.28 21.32 21.28 21.32 21.28V8.00001C21.281 7.67761 21.1711 7.36783 20.9982 7.09293C20.8253 6.81802 20.5937 6.5848 20.32 6.41001L18.71 5.48001V2.67001C18.71 2.53741 18.6573 2.41023 18.5635 2.31646C18.4698 2.22269 18.3426 2.17001 18.21 2.17001H5.40999C5.27819 2.17257 5.15249 2.22607 5.05927 2.31929C4.96605 2.41251 4.91255 2.53821 4.90999 2.67001ZM3.80999 7.28001L4.90999 6.64001V9.94001L3.79999 9.16001C3.6399 9.04754 3.50974 8.89762 3.42085 8.72332C3.33196 8.54903 3.28704 8.35564 3.28999 8.16001C3.2895 7.98012 3.33755 7.80343 3.42906 7.64855C3.52058 7.49368 3.65218 7.36636 3.80999 7.28001V7.28001ZM3.28999 10L11 15.43L3.31999 20.43L3.28999 10ZM4.47999 20.8L11.86 16L19.24 20.79L4.47999 20.8ZM18.81 6.64001L19.92 7.28001C20.0748 7.37397 20.203 7.50602 20.2922 7.66358C20.3815 7.82113 20.4289 7.99893 20.43 8.18001C20.4338 8.37579 20.3893 8.56949 20.3003 8.74393C20.2114 8.91837 20.0807 9.06816 19.92 9.18001L18.81 9.96001V6.64001ZM20.43 10V20.41L12.76 15.41L20.43 10ZM5.90999 3.17001H17.81V10.65L11.86 14.84L5.90999 10.65V3.17001Z" fill="black"/>
<path d="M12.6 12.42H11.4C11.2682 12.4226 11.1425 12.4761 11.0493 12.5693C10.9561 12.6625 10.9026 12.7882 10.9 12.92C10.9 13.0526 10.9527 13.1798 11.0464 13.2736C11.1402 13.3673 11.2674 13.42 11.4 13.42H12.6C12.7326 13.42 12.8598 13.3673 12.9535 13.2736C13.0473 13.1798 13.1 13.0526 13.1 12.92C13.0974 12.7882 13.0439 12.6625 12.9507 12.5693C12.8575 12.4761 12.7318 12.4226 12.6 12.42Z" fill="black"/>
<path d="M13.76 4.71002C13.323 4.47747 12.8436 4.33546 12.3505 4.29251C11.8573 4.24955 11.3606 4.30653 10.89 4.46002C10.054 4.72757 9.33912 5.28138 8.87116 6.02401C8.40321 6.76665 8.21215 7.65052 8.3316 8.52013C8.45105 9.38974 8.87336 10.1894 9.52423 10.7783C10.1751 11.3673 11.0128 11.7078 11.89 11.74V11.74C12.0201 11.7376 12.1444 11.6855 12.2373 11.5944C12.3303 11.5033 12.3849 11.3801 12.39 11.25C12.3927 11.1191 12.344 10.9923 12.2542 10.8969C12.1644 10.8016 12.0409 10.7452 11.91 10.74C11.4997 10.7282 11.0974 10.624 10.733 10.4352C10.3685 10.2465 10.0513 9.97793 9.80499 9.64963C9.55866 9.32133 9.38952 8.94172 9.31016 8.53902C9.2308 8.13633 9.24326 7.72093 9.34661 7.32372C9.44996 6.9265 9.64155 6.55771 9.90711 6.24476C10.1727 5.93182 10.5054 5.68278 10.8805 5.51618C11.2556 5.34958 11.6634 5.2697 12.0737 5.28248C12.4839 5.29527 12.886 5.40039 13.25 5.59002C13.8292 5.85981 14.2789 6.34691 14.5016 6.94583C14.7244 7.54476 14.7022 8.20731 14.44 8.79002V8.79002C14.3919 8.92853 14.3032 9.04935 14.1855 9.13675C14.0678 9.22415 13.9265 9.27407 13.78 9.28002C13.7583 9.27925 13.737 9.27343 13.7179 9.26302C13.6988 9.2526 13.6824 9.23788 13.67 9.22002C13.6086 9.1589 13.5728 9.07663 13.57 8.99002C13.57 8.79002 13.57 6.05002 13.57 6.15002C13.57 6.01742 13.5173 5.89024 13.4235 5.79647C13.3298 5.7027 13.2026 5.65002 13.07 5.65002C12.9504 5.65124 12.8352 5.69529 12.7453 5.77418C12.6554 5.85308 12.5967 5.96159 12.58 6.08002C12.3451 5.9475 12.0797 5.87857 11.81 5.88002C11.2917 5.92839 10.8128 6.17689 10.4748 6.57274C10.1368 6.96859 9.96651 7.4806 9.99999 8.00002C9.95843 8.526 10.1264 9.04709 10.4673 9.44979C10.8082 9.85249 11.2944 10.1042 11.82 10.15C12.1878 10.1366 12.5403 9.99919 12.82 9.76002C12.8538 9.83241 12.8976 9.89972 12.95 9.96002C13.0565 10.07 13.1839 10.1576 13.3247 10.2177C13.4655 10.2778 13.6169 10.3092 13.77 10.31C14.1183 10.3048 14.4568 10.194 14.7407 9.99222C15.0246 9.79044 15.2406 9.50722 15.36 9.18002C15.7264 8.37311 15.7643 7.45522 15.4657 6.62084C15.167 5.78645 14.5553 5.10112 13.76 4.71002V4.71002ZM11.84 9.13002C11.44 9.13002 11.02 8.67002 11.02 7.98002C10.9941 7.72385 11.068 7.46756 11.2264 7.26452C11.3847 7.06148 11.6152 6.92734 11.87 6.89002C12.31 6.89002 12.61 7.33002 12.62 7.95002V8.00002C12.61 8.61002 12.27 9.13002 11.84 9.13002Z" fill="black"/>
</svg>
