<!DOCTYPE svg PUBLIC "-//W3C//DTD SVG 1.1//EN" "http://www.w3.org/Graphics/SVG/1.1/DTD/svg11.dtd">
<!-- Uploaded to: SVG Repo, www.svgrepo.com, Transformed by: SVG Repo Mixer Tools -->
<svg fill="#F69314" height="100px" width="100px" version="1.1" id="Layer_1" xmlns="http://www.w3.org/2000/svg" xmlns:xlink="http://www.w3.org/1999/xlink" viewBox="0 0 512 512" xml:space="preserve">
<g id="SVGRepo_bgCarrier" stroke-width="0"/>
<g id="SVGRepo_tracerCarrier" stroke-linecap="round" stroke-linejoin="round"/>
<g id="SVGRepo_iconCarrier"> <g> <g> <g> <path d="M256.053,0C146.187,0,53.387,90.133,53.387,196.8c0,172.8,188.48,307.627,196.48,313.28c3.733,2.56,8.64,2.56,12.267,0 c8-5.653,196.48-140.48,196.48-313.28C458.72,90.133,365.92,0,256.053,0z M256.053,488C223.627,463.36,74.72,341.76,74.72,196.8 c0-95.147,83.093-175.467,181.333-175.467s181.333,80.32,181.333,175.467C437.387,341.547,288.373,463.36,256.053,488z"/> <path d="M256.053,74.667c-70.613,0-128,55.04-128,122.667S185.44,320,256.053,320s128-55.04,128-122.667 S326.667,74.667,256.053,74.667z M256.053,298.667c-58.773,0-106.667-45.44-106.667-101.333C149.387,141.44,197.28,96,256.053,96 c58.773,0,106.667,45.44,106.667,101.333C362.72,253.227,314.827,298.667,256.053,298.667z"/> </g> </g> </g> </g>
</svg>